<svg width="600" height="600" xmlns="http://www.w3.org/2000/svg">
 <!-- Created with Method Draw - http://github.com/duopixel/Method-Draw/ -->

 <g>
  <title>background</title>
  <rect fill="none" id="canvas_background" height="602" width="602" y="-1" x="-1"/>
  <g display="none" overflow="visible" y="0" x="0" height="100%" width="100%" id="canvasGrid">
   <rect fill="url(#gridpattern)" stroke-width="0" y="0" x="0" height="100%" width="100%"/>
  </g>
 </g>
 <g>
  <title>Layer 1</title>
  <path fill="#ffffff" stroke="null" id="svg_4" d="m68.6126,324.44864l171.66845,0a28.61141,27.50031 0 0 0 28.61141,-27.50031l0,-220.00247a28.61141,27.50031 0 0 0 -28.61141,-27.50031l-171.66845,0a28.61141,27.50031 0 0 0 -28.61141,27.50031l0,220.00247a28.61141,27.50031 0 0 0 28.61141,27.50031zm-28.61141,192.50216a28.61141,27.50031 0 0 0 28.61141,27.50031l171.66845,0a28.61141,27.50031 0 0 0 28.61141,-27.50031l0,-110.00123a28.61141,27.50031 0 0 0 -28.61141,-27.50031l-171.66845,0a28.61141,27.50031 0 0 0 -28.61141,27.50031l0,110.00123zm286.11409,0a28.61141,27.50031 0 0 0 28.61141,27.50031l171.66845,0a28.61141,27.50031 0 0 0 28.61141,-27.50031l0,-192.50216a28.61141,27.50031 0 0 0 -28.61141,-27.50031l-171.66845,0a28.61141,27.50031 0 0 0 -28.61141,27.50031l0,192.50216zm28.61141,-275.00308l171.66845,0a28.61141,27.50031 0 0 0 28.61141,-27.50031l0,-137.50154a28.61141,27.50031 0 0 0 -28.61141,-27.50031l-171.66845,0a28.61141,27.50031 0 0 0 -28.61141,27.50031l0,137.50154a28.61141,27.50031 0 0 0 28.61141,27.50031z"/>
  <path id="svg_6" d="m206.92308,138.46154" opacity="0.5" stroke-width="1.5" stroke="null" fill="#fff"/>
  <path id="svg_7" d="m245.38462,293.84615" opacity="0.5" stroke-width="1.5" stroke="null" fill="#fff"/>
  <path id="svg_8" d="m-4090.14761,-6780.2322" opacity="0.5" stroke-width="1.5" stroke="null" fill="#fff"/>
  <path stroke="null" d="m54.16837,62.77959c14.3332,0 50.86881,16.70667 100.33258,72.79948c34.54697,39.17691 56.09185,87.15758 28.66645,135.19899c-7.75705,13.58814 -28.66645,20.79984 -42.99969,20.79984c-14.3332,0 -49.5758,-17.61161 -57.33289,-31.19975c-10.9702,-19.21658 -9.18373,-62.93673 0,-103.99925c7.26036,-32.46281 42.99969,-51.99962 71.66614,-51.99962c28.66645,0 85.99934,62.39953 100.33258,124.79909l14.33324,51.99962l0,41.59969l-14.33324,0" id="svg_9" fill-opacity="null" stroke-opacity="null" stroke-width="null" fill="none"/>
 </g>
</svg>